HIERARCHY
ROOT Hips
{
	OFFSET 0.00 0.00 0.00
	CHANNELS 6 Xposition Yposition Zposition Xrotation Yrotation Zrotation
	JOINT LeftUpLeg
	{
		OFFSET 3.34807 0.00000 0.00000
		CHANNELS 3 Xrotation Yrotation Zrotation
		JOINT LeftLeg
		{
			OFFSET 0.00000 -16.98552 0.00000
			CHANNELS 3 Xrotation Yrotation Zrotation
			JOINT LeftFoot
			{
				OFFSET 0.00000 -16.83686 0.00000
				CHANNELS 3 Xrotation Yrotation Zrotation
				JOINT LeftToeBase
				{
					OFFSET 0.00000 -1.59599 5.95633
					CHANNELS 3 Xrotation Yrotation Zrotation
					End Site
					{
						OFFSET 0.00000 0.00000 2.95275
					}
				}
			}
		}
	}
	JOINT RightUpLeg
	{
		OFFSET -3.34807 0.00000 0.00000
		CHANNELS 3 Xrotation Yrotation Zrotation
		JOINT RightLeg
		{
			OFFSET 0.00000 -16.98552 0.00000
			CHANNELS 3 Xrotation Yrotation Zrotation
			JOINT RightFoot
			{
				OFFSET 0.00000 -16.83686 0.00000
				CHANNELS 3 Xrotation Yrotation Zrotation
				JOINT RightToeBase
				{
					OFFSET 0.00000 -1.59599 5.95633
					CHANNELS 3 Xrotation Yrotation Zrotation
					End Site
					{
						OFFSET 0.00000 0.00000 2.95275
					}
				}
			}
		}
	}
	JOINT Spine
	{
		OFFSET 0.00000 0.03937 0.00000
		CHANNELS 3 Xrotation Yrotation Zrotation
		JOINT Spine1
		{
			OFFSET 0.00000 7.93124 0.00000
			CHANNELS 3 Xrotation Yrotation Zrotation
			JOINT Neck
			{
				OFFSET 0.00000 8.48368 0.00000
				CHANNELS 3 Xrotation Yrotation Zrotation
				JOINT Head
				{
					OFFSET 0.00000 6.65077 0.00000
					CHANNELS 3 Xrotation Yrotation Zrotation
					End Site
					{
						OFFSET 0.00000 4.52755 0.00000
					}
				}
			}
			JOINT LeftShoulder
			{
				OFFSET 0.00000 8.48368 0.00000
				CHANNELS 3 Xrotation Yrotation Zrotation
				JOINT LeftArm
				{
					OFFSET 7.74502 -0.00003 0.00000
					CHANNELS 3 Xrotation Yrotation Zrotation
					JOINT LeftForeArm
					{
						OFFSET 12.49824 -0.00005 0.00000
						CHANNELS 3 Xrotation Yrotation Zrotation
						JOINT LeftHand
						{
							OFFSET 9.88337 -0.00004 0.00000
							CHANNELS 3 Xrotation Yrotation Zrotation
							JOINT LeftHandThumb
							{
								OFFSET 0.00000 0.00000 0.00000
								CHANNELS 3 Xrotation Yrotation Zrotation
								End Site
								{
									OFFSET 0.00000 0.00000 3.93700
								}
							}
							End Site
							{
								OFFSET 3.93700 -0.00001 0.00000
							}
						}
					}
				}
			}
			JOINT RightShoulder
			{
				OFFSET 0.00000 8.48368 0.00000
				CHANNELS 3 Xrotation Yrotation Zrotation
				JOINT RightArm
				{
					OFFSET -7.74502 -0.00003 0.00000
					CHANNELS 3 Xrotation Yrotation Zrotation
					JOINT RightForeArm
					{
						OFFSET -12.49824 -0.00005 0.00000
						CHANNELS 3 Xrotation Yrotation Zrotation
						JOINT RightHand
						{
							OFFSET -9.88337 -0.00004 0.00000
							CHANNELS 3 Xrotation Yrotation Zrotation
							JOINT RightHandThumb
							{
								OFFSET 0.00000 0.00000 0.00000
								CHANNELS 3 Xrotation Yrotation Zrotation
								End Site
								{
									OFFSET 0.00000 0.00000 3.93700
								}
							}
							End Site
							{
								OFFSET -5.39369 -0.00002 0.00000
							}
						}
					}
				}
			}
		}
	}
}
MOTION
Frames: 20
Frame Time: 0.008333
 -50.3161 32.0930 -74.9928 8.0855 -60.3284 -7.0873 4.2103 15.9561 8.4753 68.2543 0.0000 -0.0000 -11.8931 -1.3085 30.8446 -1.3767 0.0000 -0.0000 -33.0327 -6.2775 4.0985 34.8392 0.0000 -0.0000 -5.4342 -16.3236 40.3601 11.5413 0.0000 -0.0000 -2.4070 -6.6570 1.8980 20.8921 -10.6175 2.3113 -8.4196 14.2062 4.8891 -6.6066 8.7376 -6.8690 -9.7064 16.8270 25.9982 -4.1504 -23.6732 -85.6060 -179.9991 -76.8661 -179.9989 -4.3123 -55.1546 49.2231 -0.0000 0.0000 -0.0000 22.3589 -21.7787 -13.0939 -7.1672 25.5729 82.3269 -0.0018 83.2565 0.0016 -22.4837 -79.3187 157.3394 -0.0000 0.0000 -0.0000
 -50.9643 31.9196 -74.6802 7.5636 -60.9971 -8.7999 2.3648 15.9945 9.7578 72.0188 0.0000 -0.0000 -12.9893 -2.1790 31.4315 -1.2725 0.0000 0.0000 -33.9128 -7.2633 5.1349 39.0380 0.0000 -0.0000 -5.2646 -15.6505 36.8709 11.5413 0.0000 -0.0000 -2.2334 -6.4387 3.0401 21.1745 -9.8136 2.4611 -8.2187 14.2649 4.7318 -7.3845 8.9003 -6.8329 -9.3092 17.4016 24.9960 -3.1114 -23.1646 -86.4932 -179.9987 -80.7891 -179.9985 -3.7394 -55.5105 49.9126 -0.0000 0.0000 -0.0000 21.2885 -20.5042 -12.1904 -9.0713 25.0834 82.4670 -0.0019 83.8226 0.0017 -24.6602 -78.9694 155.5111 -0.0000 0.0000 -0.0000
 -51.6208 31.7682 -74.3449 6.7024 -61.4326 -10.4433 0.7355 15.8695 10.6870 75.4875 -0.0000 0.0000 -14.0138 -2.9054 31.9169 -1.3009 -0.0000 -0.0000 -34.1332 -8.1943 5.7110 42.4542 -0.0000 0.0000 -6.5312 -15.1226 36.9267 11.5413 0.0000 -0.0000 -2.2636 -6.2428 3.8021 21.8599 -9.2069 2.5930 -8.2942 14.3248 4.7547 -7.6530 8.9766 -6.8931 -8.1774 18.2249 23.7953 -2.7389 -22.6782 -87.3319 -179.9976 -85.0380 -179.9974 -3.1073 -55.5704 50.2604 -0.0000 0.0000 -0.0000 20.4004 -19.1707 -11.1764 -11.4786 24.7618 82.5245 -0.0021 84.2139 0.0019 -27.1839 -78.3629 153.1174 -0.0000 0.0000 -0.0000
 -52.2818 31.6351 -73.9867 5.6444 -62.0774 -11.7276 -0.7001 16.0753 11.0859 78.4879 0.0000 0.0000 -14.8376 -3.3717 32.0943 -1.5180 -0.0000 -0.0000 -33.8345 -8.3674 6.0071 44.8694 0.0000 0.0000 -7.3600 -15.1623 37.5070 11.5413 0.0000 -0.0000 -2.6905 -5.8174 3.9485 22.9245 -8.5575 2.8329 -8.3929 14.5219 4.5897 -7.6326 8.6798 -6.7148 -6.8152 18.9304 22.9508 -2.9244 -22.0489 -88.7844 -0.0759 -89.8412 -0.0757 -0.0427 -55.5384 53.0091 -0.0000 0.0000 -0.0000 20.1866 -17.9605 -10.2136 -14.9948 24.5876 82.8174 -0.0021 84.3094 0.0019 -28.2712 -77.5671 152.3329 -0.0000 0.0000 -0.0000
 -52.9421 31.5190 -73.6361 4.3909 -62.4432 -13.0329 -2.1090 16.0373 11.3664 81.3012 0.0000 0.0000 -15.5360 -3.6196 32.2505 -1.4787 0.0000 -0.0000 -32.8756 -8.5605 6.0723 46.3053 -0.0000 0.0000 -8.4062 -15.1016 39.0886 11.5413 -0.0000 -0.0000 -3.1114 -5.4200 3.7561 23.9936 -7.9947 3.3868 -8.2565 14.7959 4.1565 -7.6772 8.2072 -6.3392 -5.7814 19.4179 22.1792 -2.8982 -21.4089 -90.2180 -0.0021 -84.2425 -0.0019 2.6174 -55.4063 55.7291 -0.0000 0.0000 -0.0000 20.0365 -16.8289 -9.5788 -18.8696 24.5923 83.3545 -0.0021 84.2550 0.0019 -28.9837 -76.9001 152.0625 -0.0000 0.0000 -0.0000
 -53.6125 31.4223 -73.2789 2.6728 -62.4582 -14.6698 -3.2808 15.7168 11.5673 83.8436 0.0000 0.0000 -16.0902 -3.5814 32.3979 -1.9194 -0.0000 0.0000 -31.2859 -8.9191 5.9758 47.2919 -0.0000 -0.0000 -9.9385 -15.3660 40.5760 11.5413 0.0000 -0.0000 -3.3127 -5.1072 3.4489 24.9475 -7.5278 3.9534 -7.9531 14.8054 3.8912 -7.7233 8.0372 -6.1681 -5.6847 19.6773 21.8760 -2.1744 -21.1272 -91.6445 -0.0010 -78.2544 -0.0008 5.6524 -54.7583 58.8203 -0.0000 0.0000 -0.0000 20.0204 -15.9110 -9.0209 -23.0426 24.7701 84.0227 -0.0021 84.2444 0.0019 -28.4189 -76.3550 152.7742 -0.0000 0.0000 -0.0000
 -54.2788 31.3541 -72.9063 0.9879 -62.2973 -16.2356 -4.5035 15.2461 11.6950 86.1469 0.0000 -0.0000 -16.5141 -3.4648 32.2110 -2.1569 0.0000 -0.0000 -29.4685 -9.0755 5.8569 47.9349 -0.0000 -0.0000 -11.5801 -15.2901 41.5309 11.5413 0.0000 -0.0000 -3.3760 -4.8218 3.1808 25.6224 -7.0724 4.4548 -7.7110 14.6408 3.8421 -7.3673 8.0317 -6.3033 -5.8924 19.9014 21.8537 -1.3596 -21.2996 -92.9666 -0.0006 -71.8636 -0.0005 8.1240 -54.0151 61.8894 -0.0000 0.0000 -0.0000 19.8605 -14.9485 -8.6487 -26.9048 24.7560 84.7854 -0.0022 84.5360 0.0020 -26.1367 -75.9138 154.8986 -0.0000 0.0000 -0.0000
 -54.9090 31.3035 -72.5252 0.0701 -62.0278 -16.9348 -6.1656 14.6176 11.5613 88.2625 -0.0000 0.0000 -16.8532 -3.1400 32.3958 -2.1081 -0.0000 0.0000 -27.8969 -9.2873 5.5030 48.4496 -0.0000 0.0000 -13.2941 -15.2787 42.2996 11.5413 0.0000 0.0000 -3.3544 -4.5417 2.9181 25.6945 -6.6724 4.8298 -7.6009 14.5350 3.8453 -6.5114 7.9693 -6.4839 -5.9896 20.1624 21.8030 -0.5498 -22.1819 -93.8404 -0.0005 -65.8648 -0.0003 9.2980 -53.3431 65.5044 -0.0000 0.0000 -0.0000 19.5336 -14.2101 -8.4913 -30.4828 24.6427 85.8630 -0.0024 85.0741 0.0022 -24.5821 -75.6168 155.8597 -0.0000 0.0000 -0.0000
 -55.5500 31.3030 -72.1377 -1.1860 -61.3481 -18.4630 -7.7452 13.6425 12.0072 90.1153 -0.0000 0.0000 -17.2817 -2.7788 32.8668 -1.8578 -0.0000 0.0000 -25.5872 -10.0127 5.6018 48.3737 -0.0000 0.0000 -14.7488 -15.1994 42.4647 11.5413 0.0000 -0.0000 -3.1526 -4.4116 3.0553 25.9115 -6.2140 5.4096 -7.7724 14.5718 3.8922 -5.1656 7.7078 -6.7604 -6.0329 20.3197 21.6347 0.4185 -23.5133 -94.3449 -0.0004 -60.6335 -0.0002 8.7961 -53.0380 68.3177 -0.0000 0.0000 -0.0000 18.7933 -13.6084 -8.5971 -33.5796 24.3633 87.1261 -0.0029 85.8938 0.0027 -21.8359 -75.4727 157.7749 -0.0000 0.0000 -0.0000
 -56.1169 31.2898 -71.7416 -1.5779 -60.7952 -18.6296 -9.7654 12.7628 11.6560 91.7677 0.0000 -0.0000 -17.8681 -2.2431 32.5869 -1.5445 0.0000 0.0000 -24.5840 -11.0837 4.8077 49.5662 0.0000 -0.0000 -15.5786 -14.8301 42.5690 11.5413 0.0000 -0.0000 -2.7539 -4.2578 3.0615 25.2198 -5.9481 5.4312 -7.7681 14.4390 4.0398 -3.9985 7.7036 -6.9616 -5.9023 20.5608 21.5442 1.9430 -24.7073 -94.4756 -0.0003 -56.9238 -0.0002 6.0484 -53.2283 68.8142 -0.0000 0.0000 -0.0000 17.8442 -12.9635 -9.0295 -36.0844 23.8575 88.6465 -0.0043 87.2012 0.0041 -19.3844 -75.5919 159.3791 -0.0000 0.0000 -0.0000
 -56.7102 31.3431 -71.3700 -2.6577 -60.6618 -20.0423 -11.6570 12.2770 12.2469 92.9374 0.0000 0.0000 -18.3767 -2.0402 32.3374 -1.4723 -0.0000 -0.0000 -22.6299 -11.1921 5.2594 49.4657 -0.0000 -0.0000 -16.2032 -14.9067 42.8063 11.5413 0.0000 0.0000 -2.3747 -3.9754 3.4285 24.9854 -5.3079 5.5303 -7.9088 14.2836 4.2949 -2.9962 7.7088 -7.3280 -5.8517 20.9081 21.2639 4.0281 -26.0101 -94.0062 -0.0003 -54.6594 -0.0002 2.9107 -54.4975 68.7427 -0.0000 0.0000 -0.0000 16.5585 -12.1842 -9.5504 -38.1483 23.3099 90.1275 -0.0106 88.8637 0.0104 -15.5404 -76.0789 162.4136 -0.0000 0.0000 -0.0000
 -57.3105 31.4447 -71.0298 -4.0076 -60.4041 -22.2109 -13.5512 11.6112 13.4977 93.7983 -0.0000 -0.0000 -18.7930 -1.8335 32.5914 -1.2718 0.0000 -0.0000 -19.8387 -10.7093 6.6358 48.1343 -0.0000 0.0000 -16.6166 -15.4897 43.1933 11.5413 -0.0000 0.0000 -1.8712 -3.6947 4.0580 24.9177 -4.4635 5.8635 -8.0860 14.1885 4.4124 -2.2413 7.4354 -7.5616 -5.6302 21.1370 20.8782 6.4083 -27.4692 -93.0129 -0.0003 -54.0552 -0.0001 -0.2955 -55.3222 67.8342 -0.0000 0.0000 -0.0000 15.2735 -11.5949 -10.1152 -40.1202 22.9445 91.6516 -179.9696 89.6034 179.9694 63.8889 -72.8132 -127.0399 -0.0000 0.0000 -0.0000
 -57.8750 31.5249 -70.6412 -4.8723 -60.1027 -23.1392 -15.4488 11.0857 13.6957 94.1958 0.0000 -0.0000 -19.0287 -1.5297 33.4237 -0.9494 0.0000 -0.0000 -17.8407 -10.3385 6.9003 47.5746 -0.0000 0.0000 -16.7834 -15.7872 43.8457 11.5413 0.0000 -0.0000 -1.4763 -3.3938 4.4597 24.6257 -3.8960 5.5309 -8.1420 14.0897 4.3952 -2.0262 7.0729 -7.3735 -5.1244 21.5305 20.6473 8.8777 -29.4518 -91.5136 -0.0003 -54.8073 -0.0002 -2.0168 -55.8920 67.4541 -0.0000 0.0000 -0.0000 14.2687 -11.1525 -10.7753 -42.0961 22.4590 93.2982 -179.9954 87.3851 179.9952 55.5660 -25.9401 -81.2844 -0.0000 0.0000 -0.0000
 -58.3175 31.5490 -70.2216 -3.4563 -60.5740 -20.5214 -18.4768 11.3734 12.0777 94.1727 -0.0000 -0.0000 -19.2212 -0.8840 33.9020 -1.0367 0.0000 -0.0000 -18.2990 -9.6500 5.3319 48.3975 -0.0000 0.0000 -17.0519 -15.7613 44.5424 11.5413 0.0000 -0.0000 -1.5599 -2.7571 4.1040 23.1558 -3.5977 4.3187 -7.7152 13.7502 4.2364 -2.6170 6.8777 -6.8670 -4.2882 22.1572 20.6301 11.5291 -31.7468 -89.5371 -0.0003 -56.7311 -0.0002 -2.4030 -56.0548 67.5049 -0.0000 0.0000 -0.0000 13.5372 -10.9058 -11.6724 -44.1134 21.9717 95.1262 -179.9976 85.0487 179.9974 46.2237 -40.6225 -115.4867 -0.0000 0.0000 -0.0000
 -58.8696 31.6597 -69.8086 -4.0766 -60.2732 -20.9880 -20.2811 11.0047 11.9651 93.7161 -0.0000 0.0000 -19.5914 -0.5700 34.2231 -1.1332 0.0000 -0.0000 -16.4783 -9.1993 5.3145 47.8710 0.0000 0.0000 -16.8193 -15.9632 45.2210 11.5413 -0.0000 -0.0000 -1.3355 -2.4222 4.3951 22.9917 -3.1092 3.7269 -7.5493 13.3930 4.1893 -3.1889 6.5063 -6.6956 -3.6101 22.8015 20.3693 14.4058 -33.7424 -87.0531 -0.0004 -59.3097 -0.0002 -1.9639 -56.3378 67.2383 -0.0000 0.0000 -0.0000 12.7515 -10.6496 -12.5002 -46.1824 21.6391 96.5618 -179.9984 82.5702 179.9982 -18.0092 -77.4853 159.7177 -0.0000 0.0000 -0.0000
 -59.3778 31.7832 -69.3738 -4.1159 -59.9725 -20.5895 -22.2418 10.7176 11.3614 92.7909 0.0000 0.0000 -20.0231 -0.1977 34.5104 -1.0368 -0.0000 -0.0000 -15.0308 -8.8602 4.8279 47.3239 -0.0000 0.0000 -16.3964 -16.1893 45.9906 11.5413 -0.0000 0.0000 -1.1762 -2.0614 4.4496 22.5869 -2.7224 3.0844 -7.1262 12.7825 4.2494 -4.0326 6.4422 -6.7477 -2.8871 23.5039 20.1300 17.2920 -35.6400 -84.4147 -0.0004 -61.9768 -0.0002 -0.5208 -57.0342 67.3724 -0.0000 0.0000 -0.0000 12.0910 -10.5151 -13.5257 -47.9897 21.1205 98.0366 -179.9988 80.1229 179.9986 -16.1209 -78.2774 161.2013 -0.0000 0.0000 -0.0000
 -59.9241 31.9328 -68.9403 -4.2079 -59.6237 -20.4853 -24.0485 10.4092 11.1132 91.4674 0.0000 0.0000 -20.2760 -0.0918 34.8514 -1.2987 -0.0000 -0.0000 -13.3270 -8.4397 4.6899 46.4862 -0.0000 -0.0000 -15.7417 -16.4098 46.8991 11.5413 -0.0000 0.0000 -1.1965 -1.6871 4.5863 22.3860 -2.2995 2.4966 -6.9728 12.4825 4.1267 -4.5017 5.8793 -6.3286 -2.2220 24.2042 20.1634 20.0394 -37.2177 -81.8576 -0.0004 -64.7025 -0.0003 0.6763 -57.3013 67.0879 -0.0000 0.0000 -0.0000 11.5389 -10.3949 -14.4799 -49.5655 20.6834 99.2272 -179.9990 77.5960 179.9988 -13.6493 -79.1325 163.2671 -0.0000 0.0000 -0.0000
 -60.4617 32.1084 -68.4905 -4.1764 -59.0832 -20.1395 -25.6844 10.0423 10.6206 89.6800 0.0000 0.0000 -20.6008 -0.0396 35.0606 -1.1922 0.0000 -0.0000 -11.5739 -8.1045 4.3796 45.5041 -0.0000 0.0000 -14.9564 -16.6374 47.6630 11.5413 0.0000 0.0000 -1.3041 -1.2426 4.5108 22.3082 -1.8309 2.0862 -6.7740 11.9692 4.1104 -4.9539 5.3001 -6.1693 -1.7749 24.5785 20.4052 22.6220 -38.3496 -79.6884 -0.0005 -67.1369 -0.0003 1.3657 -57.7036 66.1176 -0.0000 0.0000 -0.0000 10.9385 -10.4354 -15.4399 -51.1046 19.9358 100.2438 -179.9992 75.2623 179.9990 -7.7753 -78.5966 167.6082 -0.0000 0.0000 -0.0000
 -60.9944 32.3036 -68.0371 -4.1855 -58.3304 -19.8895 -27.1200 9.6041 10.1188 87.4971 0.0000 0.0000 -20.5406 -0.0421 35.6820 -2.1468 -0.0000 0.0000 -9.6981 -7.8947 4.1180 44.4473 0.0000 -0.0000 -13.9141 -16.7441 48.1136 11.5413 0.0000 0.0000 -1.2605 -0.8812 4.4183 22.0775 -1.4441 1.7280 -6.5424 11.3017 4.2342 -5.1649 4.8431 -6.1624 -1.4942 24.8088 20.9058 25.0189 -39.1335 -77.9501 -0.0006 -69.2456 -0.0004 1.5811 -58.1158 64.9603 -0.0000 0.0000 -0.0000 10.4665 -10.3792 -16.1245 -52.1126 19.7877 100.6206 -179.9993 72.6607 179.9991 -5.8946 -79.2849 168.8022 -0.0000 0.0000 -0.0000
 -61.5241 32.5118 -67.5660 -4.2464 -57.4539 -19.6473 -28.3174 9.2052 9.5278 84.9078 0.0000 -0.0000 -20.7475 -0.3667 35.1066 -1.8630 0.0000 0.0000 -7.7426 -7.6232 3.8295 43.3484 0.0000 -0.0000 -12.8266 -16.7175 48.2088 11.5413 0.0000 -0.0000 -1.2209 -0.5186 4.2466 21.9189 -1.0667 1.4364 -6.5000 10.8147 4.3001 -4.9940 4.1580 -6.0111 -1.3300 24.8064 21.5206 27.1818 -39.6422 -76.5973 -0.0006 -71.0991 -0.0004 1.4590 -58.1463 64.1279 -0.0000 0.0000 -0.0000 9.9703 -10.3246 -16.7074 -52.7472 19.8032 100.7314 -179.9994 70.0921 179.9992 -3.1692 -79.9783 170.8230 -0.0000 0.0000 -0.0000
